<?xml version="1.0" encoding="UTF-8" standalone="no"?>
<!-- Created with Inkscape (http://www.inkscape.org/) -->

<svg
   version="1.1"
   id="svg1"
   width="326.245"
   height="323.52347"
   viewBox="0 0 326.245 323.52347"
   sodipodi:docname="733603.png"
   xml:space="preserve"
   xmlns:inkscape="http://www.inkscape.org/namespaces/inkscape"
   xmlns:sodipodi="http://sodipodi.sourceforge.net/DTD/sodipodi-0.dtd"
   xmlns="http://www.w3.org/2000/svg"
   xmlns:svg="http://www.w3.org/2000/svg"><defs
     id="defs1" /><sodipodi:namedview
     id="namedview1"
     pagecolor="#ffffff"
     bordercolor="#000000"
     borderopacity="0.25"
     inkscape:showpageshadow="2"
     inkscape:pageopacity="0.0"
     inkscape:pagecheckerboard="0"
     inkscape:deskcolor="#d1d1d1" /><g
     inkscape:groupmode="layer"
     inkscape:label="Image"
     id="g1"
     transform="translate(103.86494,-219.76265)"><path
       style="fill:#2590f3;fill-opacity:1;stroke-width:2.5682"
       d="m 40.340482,542.31366 c -81.67075,-8.38865 -144.205422,-78.06784 -144.205422,-160.6807 0,-144.19095 175.294022,-216.08485 277.77053,-113.92289 C 283.0349,376.50441 194.6761,558.16595 40.340482,542.31366 Z m -49.36092,-69.82157 c 23.4594,-6.22514 23.61993,-6.23192 36.13095,-1.52343 99.231958,37.34545 180.925108,-87.56808 105.880238,-161.89701 -73.679168,-72.97627 -199.736448,5.21071 -164.376348,101.95437 6.87576,18.8118 6.89117,17.98396 -0.84448,45.36756 -7.26643,25.72272 -8.86936,24.61093 23.20964,16.09851 z m 49.98123,-15.77306 c -2.12894,-0.81896 -8.11532,-3.596 -13.30306,-6.17116 -8.59166,-4.26488 -10.65069,-4.36379 -23.10483,-1.10981 -16.69884,4.36306 -16.56281,4.48801 -11.97809,-11.00282 3.58487,-12.11239 3.47788,-13.02427 -2.94505,-25.10093 -39.70064,-74.64689 62.62495,-150.35084 126.462428,-93.56125 61.10774,54.36121 -0.0463,165.8301 -75.131398,136.94597 z m 66.173708,-37.0916 c 10.52559,-9.79393 8.19674,-18.24787 -6.96441,-25.28123 -13.045748,-6.05201 -13.045748,-6.05201 -19.146078,1.48004 -10.56539,13.04499 -48.03347,-14.61102 -38.76867,-28.61599 4.87399,-7.36766 4.83792,-9.72419 -0.35487,-23.19162 -5.07932,-13.1731 -14.29946,-14.959 -24.06658,-4.66156 -30.44804,32.10124 56.79193,110.51933 89.300608,80.27036 z"
       id="path2" /></g></svg>
