<?xml version="1.0" encoding="UTF-8" standalone="no"?>
<!-- Created with Inkscape (http://www.inkscape.org/) -->

<svg
   version="1.1"
   id="svg1"
   width="421.20291"
   height="420.3327"
   viewBox="0 0 421.20291 420.3327"
   sodipodi:docname="733603.png"
   xml:space="preserve"
   xmlns:inkscape="http://www.inkscape.org/namespaces/inkscape"
   xmlns:sodipodi="http://sodipodi.sourceforge.net/DTD/sodipodi-0.dtd"
   xmlns="http://www.w3.org/2000/svg"
   xmlns:svg="http://www.w3.org/2000/svg"><defs
     id="defs1" /><sodipodi:namedview
     id="namedview1"
     pagecolor="#ffffff"
     bordercolor="#000000"
     borderopacity="0.25"
     inkscape:showpageshadow="2"
     inkscape:pageopacity="0.0"
     inkscape:pagecheckerboard="0"
     inkscape:deskcolor="#d1d1d1"
     inkscape:export-bgcolor="#ffffff00" /><g
     inkscape:groupmode="layer"
     inkscape:label="Image"
     id="g1"
     transform="translate(-241.90836,-123.16265)"><path
       style="fill:#2590f3;fill-opacity:1;stroke-width:1.31772"
       d="M 391.24162,542.28729 C 258.95038,537.09512 234.4536,492.93153 243.6287,276.16579 c 5.82902,-137.71302 44.33847,-159.63196 266.22196,-151.52916 137.18333,5.0097 160.3491,45.64313 151.64579,265.99102 -4.0249,101.90153 -37.66329,145.50136 -115.97601,150.3204 -46.1082,2.83732 -103.43119,3.33491 -154.27882,1.33924 z m 188.24412,-39.13451 c 45.35337,-22.33583 50.63283,-40.03621 50.63283,-169.75607 0,-174.46052 -3.03831,-177.49883 -177.49885,-177.49883 -172.95996,0 -176.15454,3.01452 -178.31231,168.2613 -1.82489,139.75493 8.225,168.22187 64.91397,183.87298 30.64504,8.46071 221.02774,4.59435 240.26436,-4.87938 z M 428.45833,432.81542 C 349.52387,413.03048 323.41052,312.93025 383.11287,258.99276 c 65.97975,-59.60873 169.62441,-14.1461 169.62441,74.40395 0,64.69839 -62.69747,114.85413 -124.27895,99.41871 z m 56.51994,-35.99685 c 50.15151,-25.71788 50.54651,-100.91758 0.6645,-126.50471 -72.08207,-36.97472 -140.24566,52.07201 -85.40364,111.56859 22.22384,24.11002 55.43439,29.96371 84.73914,14.93612 z m 66.3283,-158.80675 c -16.9973,-19.00979 2.3911,-47.35395 25.26327,-36.9327 21.53767,9.81322 14.22801,42.73874 -9.48824,42.73874 -5.89019,0 -12.88584,-2.57477 -15.77503,-5.80604 z"
       id="path3"
       inkscape:export-filename="..\LogoFInal\Logo_insta.png"
       inkscape:export-xdpi="96"
       inkscape:export-ydpi="96" /></g></svg>
