<?xml version="1.0" encoding="UTF-8" standalone="no"?>
<!-- Created with Inkscape (http://www.inkscape.org/) -->

<svg
   version="1.1"
   id="svg1"
   width="322.276"
   height="322.57236"
   viewBox="0 0 322.276 322.57236"
   sodipodi:docname="733603.png"
   xml:space="preserve"
   xmlns:inkscape="http://www.inkscape.org/namespaces/inkscape"
   xmlns:sodipodi="http://sodipodi.sourceforge.net/DTD/sodipodi-0.dtd"
   xmlns="http://www.w3.org/2000/svg"
   xmlns:svg="http://www.w3.org/2000/svg"><defs
     id="defs1" /><sodipodi:namedview
     id="namedview1"
     pagecolor="#ffffff"
     bordercolor="#000000"
     borderopacity="0.25"
     inkscape:showpageshadow="2"
     inkscape:pageopacity="0.0"
     inkscape:pagecheckerboard="0"
     inkscape:deskcolor="#d1d1d1"
     inkscape:export-bgcolor="#ffffff00" /><g
     inkscape:groupmode="layer"
     inkscape:label="Image"
     id="g1"
     transform="translate(440.271,-223.59181)"><path
       style="fill:#2590f3;fill-opacity:1;stroke-width:2.52626"
       d="m -411.50801,542.90677 c -11.06717,-3.20224 -22.8761,-15.71123 -26.08619,-27.63265 l -2.6768,-9.94079 0.72044,-126.97631 0.72044,-126.97631 5.50959,-8.84192 c 3.03028,-4.86306 9.28277,-11.11556 13.89444,-13.89445 l 8.38484,-5.05253 h 132.62869 132.62869 l 8.84191,5.50961 c 4.86305,3.0303 11.11555,9.2828 13.89444,13.89445 l 5.05252,8.38484 v 132.62882 132.62885 l -5.05252,8.38485 c -2.77889,4.61166 -9.03139,10.86417 -13.89444,13.89444 l -8.84191,5.50961 -35.99922,0.86843 -35.99921,0.86845 v -55.69413 -55.69412 l 15.62037,-0.75212 15.62038,-0.75212 9.64223,-23.81789 c 5.30323,-13.09984 9.64223,-24.18382 9.64223,-24.63107 0,-0.44725 -11.36817,-0.81318 -25.2626,-0.81318 h -25.26261 v -21.29278 -21.29279 l 3.96985,-3.96985 3.96983,-3.96984 h 16.24025 16.24024 v -25.47418 -25.47421 l -29.8949,0.84314 -29.89491,0.84311 c -22.02286,4.27022 -40.71116,12.67586 -39.99749,39.99755 l -0.84314,29.89494 -0.84311,29.89491 h -19.99854 -19.99851 v 25.26264 25.26263 h 20.21008 20.21009 v 55.57782 55.57779 l -62.52496,-0.22787 c -34.38872,-0.1253 -66.14543,-1.27541 -70.57049,-2.55579 z"
       id="path1"
       sodipodi:nodetypes="sscccsscccsscccsscccccccsssccccccccccccccccccccccsss" /></g></svg>
